#!OML:ASF C:\Vicon Data\Big\jianyuan-12\jianyuan\Session 1\Capture.male.ASF
:FULLY-SPECIFIED
:DEGREES
223
root -6.406462 17.155740 -6.682487 6.481832 3.462633 7.387676
lowerback -9.300806 -2.245269 -9.418435 
upperback 1.877398 -1.810433 -1.444671 
thorax 7.504880 -1.277830 3.465842 
lowerneck -4.709414 -4.624513 -6.098539 
upperneck 6.982212 -6.355954 7.296524 
head 3.273063 -3.053049 2.912566 
rclavicle 0.000000 0.000000 
rhumerus -49.207907 -33.520092 -68.649034 
rradius 32.677776 
rwrist 38.979712 
rhand -18.436403 -4.345428 
rfingers 0.000000 
rthumb 7.849110 -34.179687 
lclavicle 0.000000 0.000000 
lhumerus -19.504065 18.889158 86.177643 
lradius 35.158207 
lwrist -37.138048 
lhand -8.794378 4.946745 
lfingers 0.000000 
lthumb 17.144347 34.210352 
rfemur -39.930834 -3.881239 10.831042 
rtibia 42.125732 
rfoot -18.983954 -7.441743 
rtoes -8.796744 
lfemur -3.073420 -3.643940 -33.244726 
ltibia 14.278571 
lfoot -23.003493 3.746950 
ltoes -21.071262 
224
root -6.399663 17.154639 -6.620265 6.534472 3.517567 7.422869
lowerback -9.328596 -2.279195 -9.428214 
upperback 1.870283 -1.851783 -1.443306 
thorax 7.519280 -1.298720 3.465117 
lowerneck -4.737475 -4.630981 -6.069223 
upperneck 6.991001 -6.361310 7.246266 
head 3.278185 -3.056006 2.891569 
rclavicle 0.000000 0.000000 
rhumerus -49.381158 -33.671387 -68.434970 
rradius 32.575527 
rwrist 39.298563 
rhand -18.615532 -4.316672 
rfingers 0.000000 
rthumb 7.676221 -34.157329 
lclavicle 0.000000 0.000000 
lhumerus -19.324182 18.688846 86.271710 
lradius 35.348342 
lwrist -36.850300 
lhand -8.754400 4.945427 
lfingers 0.000000 
lthumb 17.182870 34.205689 
rfemur -39.878258 -3.622321 10.663633 
rtibia 40.701539 
rfoot -18.840123 -7.219715 
rtoes -9.450585 
lfemur -2.579785 -3.655463 -33.300111 
ltibia 13.674862 
lfoot -22.854218 3.845119 
ltoes -20.957184 
225
root -6.392612 17.153402 -6.557826 6.560807 3.543641 7.572949
lowerback -9.332234 -2.299188 -9.553720 
upperback 1.876800 -1.861971 -1.466955 
thorax 7.534433 -1.309803 3.507573 
lowerneck -4.797390 -4.637174 -6.096361 
upperneck 7.050560 -6.369814 7.266100 
head 3.308037 -3.058544 2.899638 
rclavicle 0.000000 0.000000 
rhumerus -49.519809 -33.737657 -68.301088 
rradius 32.571298 
rwrist 39.395955 
rhand -18.559724 -4.355283 
rfingers 0.000000 
rthumb 7.730086 -34.193959 
lclavicle 0.000000 0.000000 
lhumerus -19.141684 18.508997 86.394275 
lradius 35.539728 
lwrist -36.706030 
lhand -8.746307 4.920619 
lfingers 0.000000 
lthumb 17.190615 34.180199 
rfemur -39.792980 -3.353552 10.344314 
rtibia 39.305808 
rfoot -18.743142 -6.982412 
rtoes -10.191275 
lfemur -2.063028 -3.623257 -33.488763 
ltibia 13.095784 
lfoot -22.713804 3.877999 
ltoes -21.086061 
226
root -6.386398 17.152457 -6.494770 6.623536 3.542118 7.639352
lowerback -9.388877 -2.298063 -9.592468 
upperback 1.856196 -1.850145 -1.475364 
thorax 7.544453 -1.305391 3.520970 
lowerneck -4.796376 -4.651736 -6.086538 
upperneck 7.091473 -6.391725 7.251873 
head 3.320866 -3.069525 2.892223 
rclavicle 0.000000 0.000000 
rhumerus -49.654952 -33.665685 -68.265632 
rradius 32.649194 
rwrist 39.212388 
rhand -18.370128 -4.479072 
rfingers 0.000000 
rthumb 7.913094 -34.310958 
lclavicle 0.000000 0.000000 
lhumerus -18.996255 18.236392 86.527114 
lradius 35.719718 
lwrist -36.416009 
lhand -8.722086 4.925574 
lfingers 0.000000 
lthumb 17.213918 34.183086 
rfemur -39.755386 -3.021181 10.101932 
rtibia 37.942079 
rfoot -18.490251 -6.748496 
rtoes -10.862485 
lfemur -1.575834 -3.652399 -33.587735 
ltibia 12.477461 
lfoot -22.577904 3.943038 
ltoes -21.137401 
227
root -6.382456 17.153668 -6.430261 6.643137 3.570880 7.549570
lowerback -9.438569 -2.311627 -9.494662 
upperback 1.863426 -1.874726 -1.442057 
thorax 7.581277 -1.314967 3.496346 
lowerneck -4.804025 -4.655972 -6.074868 
upperneck 7.075455 -6.395807 7.240345 
head 3.316870 -3.071535 2.886572 
rclavicle 0.000000 0.000000 
rhumerus -49.773557 -33.681775 -68.191569 
rradius 32.681416 
rwrist 39.244915 
rhand -18.414575 -4.520306 
rfingers 0.000000 
rthumb 7.870207 -34.353750 
lclavicle 0.000000 0.000000 
lhumerus -18.833147 17.929333 86.625379 
lradius 35.900551 
lwrist -36.084329 
lhand -8.683313 4.957012 
lfingers 0.000000 
lthumb 17.251246 34.211274 
rfemur -39.657368 -2.621870 10.019074 
rtibia 36.633269 
rfoot -18.289637 -6.553941 
rtoes -11.224137 
lfemur -1.014051 -3.734342 -33.505980 
ltibia 11.802103 
lfoot -22.457807 4.112292 
ltoes -21.147520 
228
root -6.377932 17.153734 -6.366576 6.636504 3.577575 7.536961
lowerback -9.453563 -2.328532 -9.474983 
upperback 1.872521 -1.897502 -1.434753 
thorax 7.602343 -1.326334 3.488624 
lowerneck -4.848330 -4.661928 -6.086720 
upperneck 7.112914 -6.404531 7.257813 
head 3.336984 -3.074369 2.891988 
rclavicle 0.000000 0.000000 
rhumerus -49.948506 -33.827592 -67.995101 
rradius 32.669085 
rwrist 39.490487 
rhand -18.378920 -4.461229 
rfingers 0.000000 
rthumb 7.904636 -34.293395 
lclavicle 0.000000 0.000000 
lhumerus -18.678694 17.764826 86.676881 
lradius 36.048054 
lwrist -35.955688 
lhand -8.674097 4.906222 
lfingers 0.000000 
lthumb 17.260110 34.159699 
rfemur -39.540238 -2.244271 9.851835 
rtibia 35.384737 
rfoot -18.177421 -6.363823 
rtoes -11.724107 
lfemur -0.430092 -3.695115 -33.510693 
ltibia 11.133131 
lfoot -22.295195 4.248467 
ltoes -21.425648 
229
root -6.371547 17.151647 -6.304615 6.651275 3.566043 7.654367
lowerback -9.473682 -2.351296 -9.580973 
upperback 1.875390 -1.912062 -1.451042 
thorax 7.623205 -1.338916 3.526889 
lowerneck -4.899527 -4.666751 -6.135971 
upperneck 7.165023 -6.410902 7.294308 
head 3.364279 -3.076039 2.909063 
rclavicle 0.000000 0.000000 
rhumerus -50.061288 -33.893321 -67.871592 
rradius 32.669775 
rwrist 39.503532 
rhand -18.201103 -4.478633 
rfingers 0.000000 
rthumb 8.076244 -34.304307 
lclavicle 0.000000 0.000000 
lhumerus -18.560423 17.575441 86.757836 
lradius 36.281669 
lwrist -35.633782 
lhand -8.583176 4.999354 
lfingers 0.000000 
lthumb 17.347646 34.245120 
rfemur -39.458874 -1.910969 9.533260 
rtibia 34.201788 
rfoot -18.020227 -6.193014 
rtoes -12.467708 
lfemur 0.135812 -3.604311 -33.658768 
ltibia 10.451024 
lfoot -22.102461 4.312252 
ltoes -21.680138 
230
root -6.366153 17.148217 -6.243560 6.670848 3.580811 7.781684
lowerback -9.489868 -2.378567 -9.689426 
upperback 1.876838 -1.932476 -1.477085 
thorax 7.640845 -1.354135 3.555205 
lowerneck -4.901134 -4.664088 -6.104878 
upperneck 7.165232 -6.406431 7.258252 
head 3.362151 -3.074301 2.893301 
rclavicle 0.000000 0.000000 
rhumerus -50.126851 -33.895205 -67.830808 
rradius 32.674951 
rwrist 39.347158 
rhand -18.193573 -4.504648 
rfingers 0.000000 
rthumb 8.083480 -34.330040 
lclavicle 0.000000 0.000000 
lhumerus -18.467016 17.299649 86.835595 
lradius 36.514720 
lwrist -35.263251 
lhand -8.559699 5.117100 
lfingers 0.000000 
lthumb 17.370256 34.360926 
rfemur -39.376598 -1.564196 9.182177 
rtibia 33.082808 
rfoot -17.909827 -6.065410 
rtoes -13.025420 
lfemur 0.720835 -3.561709 -33.806713 
ltibia 9.723100 
lfoot -21.901393 4.372299 
ltoes -21.887803 
231
root -6.361952 17.144902 -6.182345 6.639701 3.612705 7.866165
lowerback -9.452717 -2.397389 -9.774462 
upperback 1.889981 -1.950903 -1.485253 
thorax 7.639876 -1.367295 3.591308 
lowerneck -4.888291 -4.649701 -5.974131 
upperneck 7.136450 -6.386204 7.145198 
head 3.342234 -3.065527 2.839539 
rclavicle 0.000000 0.000000 
rhumerus -50.196655 -33.921421 -67.767280 
rradius 32.654567 
rwrist 39.224802 
rhand -18.199105 -4.554622 
rfingers 0.000000 
rthumb 8.078156 -34.380229 
lclavicle 0.000000 0.000000 
lhumerus -18.375803 16.990602 86.916465 
lradius 36.717817 
lwrist -34.931727 
lhand -8.598601 5.193792 
lfingers 0.000000 
lthumb 17.332786 34.440927 
rfemur -39.241137 -1.164472 8.854488 
rtibia 32.025872 
rfoot -17.893748 -5.936218 
rtoes -13.121800 
lfemur 1.383423 -3.515079 -33.907019 
ltibia 8.950890 
lfoot -21.662334 4.459598 
ltoes -22.167837 
